<svg xmlns="http://www.w3.org/2000/svg" viewBox="0 0 24 24"><rect width="24" height="24" rx="5" fill="#49021F"/><path fill="#FF3366" d="M5.5 16.5V7.5h3.2c1.8 0 3 1 3 2.5 0 1.1-.7 1.9-1.7 2.3 1.1.4 1.9 1.3 1.9 2.7 0 1.8-1.4 3-3.5 3H5.5zm1.9-7.8h1.1c.9 0 1.4-.4 1.4-1.1 0-.7-.5-1.1-1.4-1.1H7.4v2.2zm0 5.8h1.3c1 0 1.6-.5 1.6-1.3 0-.8-.6-1.3-1.6-1.3H7.4v2.6zM14.2 16.6c-1.9 0-3.1-1.2-3.1-3.1 0-1.9 1.2-3.2 3.2-3.2 1.8 0 2.9 1 3 2.6h-1.8c-.1-.8-.6-1.2-1.3-1.2-.9 0-1.4.7-1.4 1.8s.5 1.8 1.4 1.8c.7 0 1.2-.4 1.3-1.1h1.8c-.1 1.5-1.2 2.4-3.1 2.4z"/></svg>
