<svg xmlns="http://www.w3.org/2000/svg" viewBox="0 0 24 24" role="img" aria-label="Midjourney"><rect width="24" height="24" rx="5" fill="#000"/><path fill="#fff" d="M12 3.5c-1.2 2.8-2.4 4.7-3.6 5.7 1.5-.3 3-.9 4.5-1.8-1.1 2.2-2.4 3.9-3.9 5.1 1.6-.8 3.3-1.4 5.1-1.7-1.5 2.5-3.3 4.2-5.4 5.2 2.2-.5 4.2-1.4 6-2.7-1.8 3.2-4.2 5.2-7.2 6.1 3.4-.6 6.2-2.2 8.4-4.8-2.5 4.8-6 7.4-10.5 7.8 4.9-.9 8.6-3.8 11.1-8.7-3.1 5.6-7.2 8.4-12.3 8.4 5.4-.1 9.6-2.9 12.6-8.3-3.5 4.3-7.8 6.5-12.9 6.5 4.7-.2 8.4-2.1 11.1-5.7-3.2 2.8-7 4.2-11.4 4.2 3.8-1.2 6.7-3.5 8.7-6.9-2.8 2.5-6 3.8-9.6 3.8 2.9-1.5 5-3.6 6.3-6.3-2.2 1.8-4.7 2.7-7.5 2.7 2.2-1.8 3.7-4 4.5-6.6-1.8 1.5-3.8 2.3-6 2.3 1.6-1.6 2.6-3.5 3-5.7-.9 1.2-2 2.1-3.3 2.7.4-2 .9-3.7 1.5-5.1z"/></svg>
